# xmcd
#
# Track frame offsets: 
#        150
#        10808
#        25096
#        34497
#        46140
#        56664
#        66921
#        77804
#        89837
#        101794
#        111717
#        122436
#        132839
#        144134
#        154044
#        166781
#        177799
#        191806
#
# Disc length: 2704 seconds
#
# Revision: 1
# Processed by: cddbd v1.5.2PL0 Copyright (c) Steve Scherf et al.
# Submitted via: ExactAudioCopy v1.3
#
DISCID=f50a8e12
DTITLE=Bill Monroe - 5 Classic Albiums Plus_CD01
DYEAR=2015
DGENRE=Bluegrass
TTITLE0=Cry Cry Darling
TTITLE1=Roane County Prison
TTITLE2=Goodbye Old Pal
TTITLE3=Out In The Cold World
TTITLE4=A Good Woman's Love
TTITLE5=In Despair
TTITLE6=Come Back To Me In My Dreams
TTITLE7=A Lonesome Road
TTITLE8=Sally-Jo
TTITLE9=Brand New Shoes
TTITLE10=Molly And Tenbrooks
TTITLE11=I'm Sittin' On Top Of The World
TTITLE12=I Saw The Light
TTITLE13=I'll Meet You In The Morning
TTITLE14=Life's Railway To Heaven
TTITLE15=Lord Lead Me On
TTITLE16=Wayfaring Stranger
TTITLE17=A Beautiful Life
EXTD=
EXTT0=
EXTT1=
EXTT2=
EXTT3=
EXTT4=
EXTT5=
EXTT6=
EXTT7=
EXTT8=
EXTT9=
EXTT10=
EXTT11=
EXTT12=
EXTT13=
EXTT14=
EXTT15=
EXTT16=
EXTT17=
PLAYORDER=
